# xmcd
#
# Track frame offsets:
#	150
#	14424
#	33938
#	47787
#	59242
#	69681
#	82484
#	96746
#	113442
#	125603
#	136225
#	149050
#	161999
#	176925
#	188059
#	205947
#	216362
#	231076
#	243097
#
# Disc length: 3383 seconds
#
# Revision: 1
# Processed by: cddbd v1.5.2PL0 Copyright (c) Steve Scherf et al.
# Submitted via: audiograbber 1.83.01
#
DISCID=310d3513
DTITLE=Compilation - Country 116 Original Hits Disc 1
DYEAR=2010
DGENRE=Country
TTITLE0=Glen Campbell - Rhinestone Cowboy
TTITLE1=Kenny Rogers - Coward of the County
TTITLE2=Bobbie Gentry - Raindrops Keep Falling On My Head
TTITLE3=Crystal Gale - Never Ending song Of Love
TTITLE4=Wanda Jackson - Fancy Satin Pillows
TTITLE5=Billie Jo Spears - '57 Chevrolet
TTITLE6=Don williams - Desperately
TTITLE7=Dr Hook - More Like The Movies
TTITLE8=Faron Young - I Fall To Pieces
TTITLE9=George Jones - Take These Chains From My Heart
TTITLE10=Willie Nelson - Crazy
TTITLE11=Barbara Mandrell - I Wish That I Could Fall In Love Today
TTITLE12=Dean Dillon And Tanya Tucker - Don't You Even Think About Leaving
TTITLE13=Diane Pfeifer - Wishful Drinkin'
TTITLE14=Dottie West - Hey, Mr. Dream Maker
TTITLE15=Gail Davies - I'll Be There
TTITLE16=Jean Shepard - Sing Me An Old Fashioned Song
TTITLE17=George Jones And Melba Montgomery - We Must Have Been Out Of Our Minds
TTITLE18=Slim Whitman - Rose Marie
EXTD=
EXTT0=
EXTT1=
EXTT2=
EXTT3=
EXTT4=
EXTT5=
EXTT6=
EXTT7=
EXTT8=
EXTT9=
EXTT10=
EXTT11=
EXTT12=
EXTT13=
EXTT14=
EXTT15=
EXTT16=
EXTT17=
EXTT18=
PLAYORDER=
